<svg width="640" height="150" viewBox="0 0 640 150" fill="none" xmlns="http://www.w3.org/2000/svg">
<circle cx="75" cy="75" r="75" fill="#4E2929"/>
<circle cx="60" cy="60" r="60" transform="matrix(-1 0 0 1 135 15)" fill="#F4EB9B"/>
<path d="M209.2 64.15C209.9 64.99 210.39 65.6667 210.67 66.18C210.95 66.6933 211.09 67.1833 211.09 67.65C211.09 68.21 210.717 68.8633 209.97 69.61C209.27 70.3567 208.57 70.73 207.87 70.73C206.937 70.73 206.19 70.59 205.63 70.31C205.07 70.03 204.603 69.5867 204.23 68.98C203.483 67.86 202.573 66.9033 201.5 66.11C200.427 65.27 198.747 64.85 196.46 64.85C194.5 64.85 192.26 65.2933 189.74 66.18C187.267 67.0667 185.493 68.1633 184.42 69.47C183.487 70.6367 182.67 72.41 181.97 74.79C181.317 77.17 180.99 79.48 180.99 81.72C180.99 84.4267 181.573 86.9233 182.74 89.21C183.953 91.45 185.68 93.2467 187.92 94.6C190.207 95.9533 192.937 96.63 196.11 96.63C197.837 96.63 199.61 96.3033 201.43 95.65C203.297 94.95 204.907 93.83 206.26 92.29H206.19C207.03 91.4033 208.08 90.96 209.34 90.96C210.087 90.96 210.787 91.2867 211.44 91.94C212.14 92.5933 212.49 93.2467 212.49 93.9C212.49 94.6 212.373 95.23 212.14 95.79C211.953 96.3033 211.58 96.8867 211.02 97.54C209.107 99.6867 206.843 101.157 204.23 101.95C201.617 102.743 198.49 103.14 194.85 103.14C191.63 103.14 188.363 102.37 185.05 100.83C181.783 99.29 179.263 97.4233 177.49 95.23C176.557 93.8767 175.647 91.94 174.76 89.42C173.92 86.8533 173.5 84.7767 173.5 83.19C173.5 79.13 174.107 75.28 175.32 71.64C176.58 67.9533 178.447 65.0133 180.92 62.82C182.553 61.3267 184.91 60.2067 187.99 59.46C191.07 58.7133 193.893 58.34 196.46 58.34C199.587 58.34 202.037 58.7833 203.81 59.67C205.63 60.51 207.427 62.0033 209.2 64.15ZM227.16 58.62C227.16 59.8333 227.137 61.2567 227.09 62.89C227.044 64.4767 226.997 65.69 226.95 66.53C226.81 68.91 226.74 71.29 226.74 73.67C226.74 75.4433 226.81 77.2867 226.95 79.2C228.397 77.1 229.96 75.56 231.64 74.58C233.32 73.6 235.35 73.11 237.73 73.11C239.457 73.11 241.067 73.88 242.56 75.42C244.054 76.96 245.01 78.7567 245.43 80.81C245.57 82.63 245.64 84.8467 245.64 87.46C245.64 89.14 245.734 91.3333 245.92 94.04C246.014 95.0667 246.27 96.0233 246.69 96.91C247.157 97.7967 247.81 98.24 248.65 98.24C249.07 98.24 249.397 98.2167 249.63 98.17C249.91 98.1233 250.167 98.1 250.4 98.1C251.054 98.1 251.497 98.2633 251.73 98.59C252.01 98.9167 252.15 99.3833 252.15 99.99C252.15 101.11 251.59 101.95 250.47 102.51C249.35 103.07 248.324 103.35 247.39 103.35C244.03 103.35 241.72 101.95 240.46 99.15C239.76 97.5633 239.317 95.51 239.13 92.99C238.944 90.4233 238.85 87.4367 238.85 84.03C238.85 80.67 237.707 78.99 235.42 78.99C234.16 78.99 232.877 79.6667 231.57 81.02C230.31 82.3267 229.26 84.0767 228.42 86.27C227.58 88.4167 227.16 90.6567 227.16 92.99L227.23 100.27C227.23 101.297 226.834 102.067 226.04 102.58C225.247 103.047 224.5 103.28 223.8 103.28C222.774 103.28 221.84 102.977 221 102.37C220.16 101.717 219.74 100.993 219.74 100.2C220.067 96.7 220.23 90.8433 220.23 82.63C220.23 81.1367 220.114 75.6067 219.88 66.04L219.67 59.6C219.67 58.5733 220.137 57.6867 221.07 56.94C222.004 56.1467 223.054 55.75 224.22 55.75C225.247 55.75 225.994 55.9833 226.46 56.45C226.927 56.9167 227.16 57.64 227.16 58.62ZM255.796 88.16C255.796 86.3867 256.123 84.6133 256.776 82.84C257.43 81.02 258.293 79.3633 259.366 77.87C260.44 76.3767 262.143 75.1633 264.476 74.23C266.81 73.25 268.886 72.76 270.706 72.76C272.573 72.76 274.463 73.0167 276.376 73.53C278.336 74.0433 279.69 74.8367 280.436 75.91C282.163 78.3367 283.026 80.7167 283.026 83.05C283.026 84.31 282.746 85.3833 282.186 86.27C281.673 87.1567 280.926 88.1133 279.946 89.14C279.153 89.98 277.893 90.54 276.166 90.82C274.486 91.1 272.806 91.24 271.126 91.24C270.053 91.24 268.746 91.1467 267.206 90.96C265.666 90.7267 264.173 90.4467 262.726 90.12C262.82 91.0533 263.053 91.9633 263.426 92.85C263.8 93.7367 264.243 94.4133 264.756 94.88C265.69 95.7667 266.646 96.3267 267.626 96.56C268.653 96.7933 269.96 96.91 271.546 96.91C273.226 96.91 274.79 96.63 276.236 96.07C277.403 95.65 278.36 95.44 279.106 95.44C279.993 95.44 280.67 95.72 281.136 96.28C281.603 96.7933 281.836 97.47 281.836 98.31C281.836 99.4767 281.16 100.433 279.806 101.18C278.453 101.927 276.89 102.487 275.116 102.86C273.39 103.187 271.99 103.35 270.916 103.35C268.723 103.35 266.6 102.953 264.546 102.16C262.493 101.367 260.79 100.247 259.436 98.8C258.316 97.4933 257.43 95.93 256.776 94.11C256.123 92.2433 255.796 90.26 255.796 88.16ZM271.056 78.71C270.03 78.71 269.003 78.92 267.976 79.34C266.95 79.7133 266.11 80.25 265.456 80.95C264.616 81.8367 264.033 82.56 263.706 83.12C263.426 83.6333 263.24 84.3567 263.146 85.29C264.313 85.6633 266.74 85.85 270.426 85.85C272.433 85.85 273.973 85.5467 275.046 84.94C276.166 84.3333 276.726 83.54 276.726 82.56C276.726 81.58 276.12 80.6933 274.906 79.9C273.693 79.1067 272.41 78.71 271.056 78.71ZM289.996 78.43C288.783 77.59 288.176 76.7033 288.176 75.77C288.176 75.1167 288.456 74.51 289.016 73.95C289.576 73.39 290.416 73.11 291.536 73.11C292.843 73.11 294.009 73.46 295.036 74.16C296.109 74.8133 296.856 75.77 297.276 77.03C298.349 75.77 299.563 74.7667 300.916 74.02C302.316 73.2733 303.739 72.9 305.186 72.9C306.913 72.9 308.476 73.3667 309.876 74.3C311.276 75.2333 311.976 76.4933 311.976 78.08C311.976 78.9667 311.579 79.8767 310.786 80.81C310.039 81.7433 309.269 82.21 308.476 82.21C308.056 82.21 307.683 82.1167 307.356 81.93C307.076 81.6967 306.726 81.37 306.306 80.95C305.839 80.4833 305.443 80.1567 305.116 79.97C304.789 79.7367 304.416 79.62 303.996 79.62C303.249 79.62 302.549 79.7367 301.896 79.97C301.243 80.2033 300.799 80.4833 300.566 80.81C299.819 81.9767 299.259 83.0267 298.886 83.96C298.559 84.8933 298.396 85.8967 298.396 86.97C298.396 87.7633 298.373 88.3933 298.326 88.86L298.256 92.85C298.256 93.4567 298.279 94.1333 298.326 94.88C298.373 95.6267 298.419 96.1867 298.466 96.56C298.606 97.82 298.676 99.0333 298.676 100.2C298.676 100.993 298.373 101.693 297.766 102.3C297.159 102.907 296.413 103.21 295.526 103.21C294.126 103.21 293.099 102.953 292.446 102.44C291.793 101.88 291.466 100.877 291.466 99.43L291.396 94.95C291.349 94.0633 291.326 92.8033 291.326 91.17L291.396 86.55C291.489 84.31 291.536 82.49 291.536 81.09C291.536 80.5767 291.419 80.11 291.186 79.69C290.999 79.27 290.603 78.85 289.996 78.43ZM348.303 77.94C348.256 77.1933 348.233 76.0733 348.233 74.58V71.92C348.233 70.1467 348.186 68.8167 348.093 67.93C347.999 67.1833 347.953 65.2467 347.953 62.12C347.953 61 348.279 60.1367 348.933 59.53C349.633 58.8767 350.566 58.55 351.733 58.55C353.226 58.55 354.229 58.8767 354.743 59.53C355.256 60.1833 355.513 61.2567 355.513 62.75V65.41L355.443 73.11C355.396 74.6033 355.373 76.8433 355.373 79.83L355.443 85.57C355.489 86.4567 355.513 87.6933 355.513 89.28C355.513 90.54 355.559 92.3367 355.653 94.67C355.746 96.8167 355.793 98.4267 355.793 99.5C355.793 100.387 355.536 101.203 355.023 101.95C354.556 102.697 353.903 103.07 353.063 103.07C349.796 103.07 348.163 101.973 348.163 99.78C348.163 98.5667 348.209 97.2133 348.303 95.72C348.396 94.6467 348.443 93.0133 348.443 90.82C348.443 89.28 348.396 87.0633 348.303 84.17C346.109 84.3567 342.329 84.45 336.963 84.45C333.603 84.45 330.989 84.45 329.123 84.45C327.256 84.4033 325.903 84.2867 325.063 84.1L324.993 92.15C324.993 92.6633 325.109 94.04 325.343 96.28C325.576 97.7733 325.693 99.08 325.693 100.2C325.693 100.9 325.273 101.577 324.433 102.23C323.639 102.837 322.893 103.14 322.193 103.14C320.513 103.14 319.369 102.743 318.763 101.95C318.156 101.11 317.853 99.85 317.853 98.17L317.783 92.64C317.736 91.9867 317.713 91.0767 317.713 89.91C317.713 88.1833 317.666 85.8267 317.573 82.84C317.479 80.1333 317.433 78.1733 317.433 76.96C317.433 75.14 317.479 72.5967 317.573 69.33C317.666 66.25 317.713 63.9633 317.713 62.47C317.713 60.9767 318.086 59.9733 318.833 59.46C319.579 58.9467 320.419 58.69 321.353 58.69C323.966 58.69 325.273 59.5533 325.273 61.28C325.273 64.36 325.203 67.3 325.063 70.1C324.969 73.6467 324.923 76.2367 324.923 77.87C326.276 78.1967 327.699 78.4067 329.193 78.5C330.686 78.5933 332.786 78.64 335.493 78.64C340.999 78.64 345.269 78.4067 348.303 77.94ZM392.149 80.53C392.523 81.1833 392.826 82.14 393.059 83.4C393.293 84.6133 393.409 85.71 393.409 86.69C393.409 87.95 393.269 89.35 392.989 90.89C392.709 92.43 392.453 93.62 392.219 94.46C388.999 100.34 384.239 103.28 377.939 103.28C375.606 103.28 373.226 102.51 370.799 100.97C368.373 99.43 366.693 97.6567 365.759 95.65C364.499 91.6833 363.869 89.14 363.869 88.02C363.869 86.1533 364.266 84.17 365.059 82.07C365.899 79.97 366.949 78.15 368.209 76.61C369.049 75.5367 370.496 74.6267 372.549 73.88C374.603 73.0867 376.469 72.69 378.149 72.69C381.416 72.69 384.169 73.32 386.409 74.58C388.696 75.7933 390.609 77.7767 392.149 80.53ZM386.059 91.8C386.293 91.3333 386.409 89.77 386.409 87.11C386.409 85.7567 386.153 84.4267 385.639 83.12C385.173 81.8133 384.473 80.6933 383.539 79.76C383.446 79.6667 383.189 79.5267 382.769 79.34C382.349 79.1067 381.766 78.8967 381.019 78.71C380.319 78.4767 379.503 78.36 378.569 78.36C375.956 78.36 374.043 79.41 372.829 81.51C371.616 83.61 371.009 85.99 371.009 88.65C371.009 89.07 371.149 89.9333 371.429 91.24C371.709 92.5467 371.919 93.3867 372.059 93.76C372.433 94.4133 373.179 95.1833 374.299 96.07C375.466 96.91 376.726 97.33 378.079 97.33C380.179 97.33 381.836 96.84 383.049 95.86C384.309 94.8333 385.313 93.48 386.059 91.8ZM442.466 90.68L442.746 85.29C442.746 83.33 442.513 81.8833 442.046 80.95C441.626 80.0167 440.646 79.55 439.106 79.55C436.166 79.55 433.95 81.2067 432.456 84.52C430.963 87.7867 430.216 92.57 430.216 98.87C430.216 99.15 430.216 99.7333 430.216 100.62C430.263 101.46 430.123 102.113 429.796 102.58C429.516 103.047 429.003 103.28 428.256 103.28C426.39 103.28 425.13 102.767 424.476 101.74C423.823 100.713 423.496 99.1967 423.496 97.19C423.496 96.1633 423.636 94.0633 423.916 90.89C424.15 88.65 424.266 87.0867 424.266 86.2C424.266 83.8667 423.916 82.1633 423.216 81.09C422.516 80.0167 421.303 79.48 419.576 79.48C417.57 79.48 415.913 80.4833 414.606 82.49C413.3 84.4967 412.343 86.9933 411.736 89.98C411.13 92.92 410.826 95.8367 410.826 98.73C410.826 100.083 410.593 101.18 410.126 102.02C409.706 102.86 408.89 103.28 407.676 103.28C406.79 103.28 405.903 103.047 405.016 102.58C404.13 102.067 403.686 101.39 403.686 100.55C403.686 99.6633 403.78 98.7767 403.966 97.89C404.2 96.4433 404.386 94.32 404.526 91.52C404.666 88.72 404.736 86.0833 404.736 83.61C404.736 82.49 404.456 81.4167 403.896 80.39C403.383 79.3167 402.753 78.78 402.006 78.78C401.82 78.78 401.47 78.8733 400.956 79.06C400.49 79.2467 400.14 79.34 399.906 79.34C399.3 79.34 398.74 79.06 398.226 78.5C397.76 77.94 397.526 77.4733 397.526 77.1C397.526 75.9333 398.086 74.9533 399.206 74.16C400.373 73.32 401.586 72.9 402.846 72.9C404.573 72.9 406.066 73.4833 407.326 74.65C408.633 75.8167 409.613 77.38 410.266 79.34C411.386 77.3333 412.693 75.77 414.186 74.65C415.726 73.4833 417.593 72.9 419.786 72.9C423.8 72.9 426.716 74.6967 428.536 78.29C429.61 76.5633 431.266 75.2333 433.506 74.3C435.793 73.3667 438.033 72.9 440.226 72.9C441.813 72.9 443.33 73.39 444.776 74.37C446.223 75.3033 447.366 76.5633 448.206 78.15C449.093 79.69 449.536 81.3 449.536 82.98C449.536 84.0533 449.42 86.41 449.186 90.05C449.14 90.6567 449.093 91.3333 449.046 92.08C449 92.78 448.976 93.5267 448.976 94.32C448.976 95.3 449.21 96.0933 449.676 96.7C450.19 97.3067 450.843 97.68 451.636 97.82C453.223 98.1933 454.016 98.8467 454.016 99.78C454.016 100.853 453.526 101.717 452.546 102.37C451.566 102.977 450.47 103.28 449.256 103.28C446.97 103.28 445.22 102.627 444.006 101.32C442.84 99.9667 442.256 98.03 442.256 95.51L442.466 90.68ZM458.482 87.18C458.482 85.5 458.785 83.9367 459.392 82.49C459.999 80.9967 460.885 79.4567 462.052 77.87C463.219 76.2833 464.829 75.0467 466.882 74.16C468.935 73.2267 471.175 72.76 473.602 72.76C475.469 72.76 477.265 73.1567 478.992 73.95C480.765 74.6967 482.352 75.63 483.752 76.75C483.939 77.0767 484.265 77.6833 484.732 78.57C485.199 79.41 485.525 80.18 485.712 80.88C485.945 81.58 486.062 82.3033 486.062 83.05C486.062 86.1767 484.919 88.2767 482.632 89.35C480.345 90.3767 477.452 90.89 473.952 90.89C470.452 90.89 467.605 90.6567 465.412 90.19C465.505 91.0767 465.739 91.9633 466.112 92.85C466.485 93.7367 466.929 94.4133 467.442 94.88C468.375 95.7667 469.285 96.35 470.172 96.63C471.105 96.8633 472.342 96.98 473.882 96.98C476.215 96.98 478.035 96.5367 479.342 95.65C480.555 94.8567 481.489 94.46 482.142 94.46C483.029 94.46 483.705 94.74 484.172 95.3C484.639 95.8133 484.872 96.49 484.872 97.33C484.872 99.1033 483.729 100.55 481.442 101.67C479.202 102.79 476.659 103.35 473.812 103.35C471.572 103.35 469.355 102.953 467.162 102.16C464.969 101.367 463.219 100.247 461.912 98.8C461.025 97.3067 460.232 95.4867 459.532 93.34C458.832 91.1933 458.482 89.14 458.482 87.18ZM473.882 78.5C472.855 78.5 471.782 78.6867 470.662 79.06C469.589 79.3867 468.749 79.9 468.142 80.6C467.395 81.3933 466.835 82.1167 466.462 82.77C466.135 83.4233 465.925 84.24 465.832 85.22C466.345 85.22 466.835 85.2433 467.302 85.29C467.769 85.3367 468.212 85.3833 468.632 85.43C470.685 85.6167 472.225 85.71 473.252 85.71C475.305 85.71 476.869 85.4067 477.942 84.8C479.062 84.1933 479.622 83.3767 479.622 82.35C479.622 81.37 478.992 80.4833 477.732 79.69C476.519 78.8967 475.235 78.5 473.882 78.5ZM528.302 64.15C529.002 64.99 529.492 65.6667 529.772 66.18C530.052 66.6933 530.192 67.1833 530.192 67.65C530.192 68.21 529.818 68.8633 529.072 69.61C528.372 70.3567 527.672 70.73 526.972 70.73C526.038 70.73 525.292 70.59 524.732 70.31C524.172 70.03 523.705 69.5867 523.332 68.98C523.052 68.56 522.398 68.0233 521.372 67.37C520.345 66.67 519.178 66.0867 517.872 65.62C516.565 65.1067 515.352 64.85 514.232 64.85C512.412 64.85 510.522 65.2933 508.562 66.18C506.648 67.02 505.108 68.1167 503.942 69.47C502.962 70.6833 502.075 72.5033 501.282 74.93C500.488 77.31 500.092 79.5733 500.092 81.72C500.092 84.4267 500.675 86.9233 501.842 89.21C503.055 91.45 504.782 93.2467 507.022 94.6C509.308 95.9533 512.038 96.63 515.212 96.63C516.938 96.63 518.408 96.3733 519.622 95.86C520.882 95.3467 522.235 94.6 523.682 93.62C524.802 92.92 525.665 92.4067 526.272 92.08C526.925 91.7533 527.648 91.59 528.442 91.59C529.188 91.59 529.888 91.9167 530.542 92.57C531.242 93.2233 531.592 93.8767 531.592 94.53C531.592 95.7433 530.868 96.9567 529.422 98.17C527.648 99.6167 526.015 100.713 524.522 101.46C523.028 102.16 521.488 102.627 519.902 102.86C518.362 103.047 516.378 103.14 513.952 103.14C510.732 103.14 507.465 102.37 504.152 100.83C500.885 99.29 498.365 97.4233 496.592 95.23C495.658 93.8767 494.748 91.94 493.862 89.42C493.022 86.8533 492.602 84.7767 492.602 83.19C492.602 79.2233 493.278 75.3967 494.632 71.71C495.985 68.0233 497.922 65.06 500.442 62.82C502.122 61.28 504.198 60.16 506.672 59.46C509.192 58.7133 511.618 58.34 513.952 58.34C516.938 58.34 519.505 58.83 521.652 59.81C523.845 60.79 526.062 62.2367 528.302 64.15ZM569.642 99.64C569.642 100.667 569.082 101.53 567.962 102.23C566.889 102.93 565.885 103.28 564.952 103.28C563.179 103.28 561.755 103.07 560.682 102.65C559.655 102.183 558.699 101.343 557.812 100.13C556.599 101.203 554.942 102.02 552.842 102.58C550.742 103.093 548.805 103.35 547.032 103.35C544.139 103.35 541.759 102.58 539.892 101.04C538.025 99.4533 537.092 97.1433 537.092 94.11C537.092 92.8033 537.442 91.6133 538.142 90.54C538.842 89.42 539.799 88.44 541.012 87.6C542.365 86.7133 543.905 86.0367 545.632 85.57C547.359 85.0567 549.155 84.8 551.022 84.8C552.002 84.8 553.169 84.9867 554.522 85.36C555.875 85.7333 556.925 86.13 557.672 86.55V85.43C557.672 82.91 557.065 81.1833 555.852 80.25C554.639 79.27 552.679 78.78 549.972 78.78C549.179 78.78 548.385 78.9433 547.592 79.27C546.845 79.5967 545.982 80.04 545.002 80.6C543.695 81.3 542.459 81.65 541.292 81.65C540.872 81.65 540.475 81.37 540.102 80.81C539.729 80.2033 539.542 79.6667 539.542 79.2C539.542 77.8467 540.172 76.68 541.432 75.7C542.739 74.72 544.279 73.9967 546.052 73.53C547.825 73.0167 549.412 72.76 550.812 72.76C552.212 72.76 553.822 73.04 555.642 73.6C557.462 74.1133 558.955 74.8367 560.122 75.77C561.522 76.9833 562.595 78.4067 563.342 80.04C564.135 81.6267 564.532 83.3767 564.532 85.29C564.532 85.8967 564.485 86.8067 564.392 88.02C564.299 89.3267 564.252 90.4467 564.252 91.38C564.252 91.8 564.205 92.43 564.112 93.27C564.019 94.2967 563.972 95.1133 563.972 95.72C563.972 96.28 564.182 96.77 564.602 97.19C565.022 97.5633 565.512 97.75 566.072 97.75L568.032 97.68C568.545 97.68 568.942 97.8667 569.222 98.24C569.502 98.6133 569.642 99.08 569.642 99.64ZM547.102 97.82C549.109 97.82 550.789 97.61 552.142 97.19C553.495 96.77 555.129 96 557.042 94.88C557.229 94.0867 557.345 93.0367 557.392 91.73C554.825 90.5167 552.702 89.91 551.022 89.91C549.109 89.91 547.405 90.26 545.912 90.96C544.419 91.66 543.672 92.8967 543.672 94.67C543.672 95.5567 544.045 96.3033 544.792 96.91C545.539 97.5167 546.309 97.82 547.102 97.82ZM584.656 100.2C584.656 100.993 584.353 101.693 583.746 102.3C583.139 102.907 582.393 103.21 581.506 103.21C580.106 103.21 579.079 102.953 578.426 102.44C577.773 101.88 577.446 100.877 577.446 99.43C577.446 97.7033 577.399 95.44 577.306 92.64C577.213 90.3067 577.166 88.3467 577.166 86.76C577.166 86.0133 577.213 85.0333 577.306 83.82C577.399 82.7 577.446 81.86 577.446 81.3C577.306 80.4133 576.956 79.69 576.396 79.13C575.836 78.5233 575.113 78.22 574.226 78.22C573.806 78.22 573.456 78.0333 573.176 77.66C572.896 77.24 572.756 76.82 572.756 76.4C572.756 75.3267 573.176 74.51 574.016 73.95C574.903 73.39 575.953 73.11 577.166 73.11C579.686 73.11 581.436 74.6033 582.416 77.59C583.629 76.19 585.006 75.07 586.546 74.23C588.133 73.3433 589.649 72.9 591.096 72.9C592.823 72.9 594.386 73.3667 595.786 74.3C597.233 75.2333 597.956 76.4933 597.956 78.08C597.956 78.9667 597.559 79.8767 596.766 80.81C596.019 81.7433 595.249 82.21 594.456 82.21C594.036 82.21 593.663 82.1167 593.336 81.93C593.056 81.6967 592.706 81.37 592.286 80.95C591.819 80.4833 591.423 80.1567 591.096 79.97C590.769 79.7367 590.396 79.62 589.976 79.62C589.229 79.62 588.529 79.7367 587.876 79.97C587.223 80.2033 586.779 80.4833 586.546 80.81C585.799 81.9767 585.239 83.0267 584.866 83.96C584.539 84.8933 584.376 85.8967 584.376 86.97C584.376 87.7633 584.353 88.3933 584.306 88.86L584.236 92.85C584.236 93.4567 584.259 94.1333 584.306 94.88C584.353 95.6267 584.399 96.1867 584.446 96.56C584.586 97.82 584.656 99.0333 584.656 100.2ZM601.418 86.97C601.418 84.1233 602.048 81.7667 603.308 79.9C604.568 77.9867 606.318 76.19 608.558 74.51C609.212 74.0433 610.308 73.6467 611.848 73.32C613.388 72.9467 614.742 72.76 615.908 72.76C617.308 72.76 618.778 73.0633 620.318 73.67C621.905 74.23 623.188 74.8833 624.168 75.63C625.895 76.89 627.085 78.36 627.738 80.04C628.392 81.6733 628.718 83.6333 628.718 85.92C628.718 86.9 628.158 87.8567 627.038 88.79C625.965 89.6767 624.798 90.12 623.538 90.12L620.878 90.05C619.525 90.05 617.588 90.0967 615.068 90.19L613.598 90.26C612.572 90.3533 611.802 90.4 611.288 90.4C610.542 90.4 609.515 90.3067 608.208 90.12C608.395 92.3133 609.212 94.04 610.658 95.3C612.105 96.5133 613.668 97.12 615.348 97.12C618.288 97.12 620.342 96.5367 621.508 95.37C622.488 94.67 623.142 94.2267 623.468 94.04C623.795 93.8533 624.308 93.76 625.008 93.76C625.755 93.76 626.408 94.11 626.968 94.81C627.528 95.51 627.808 96.21 627.808 96.91C627.808 97.7033 627.318 98.52 626.338 99.36C625.405 100.153 624.122 100.993 622.488 101.88C621.602 102.253 620.388 102.58 618.848 102.86C617.308 103.14 616.025 103.28 614.998 103.28C613.365 103.28 611.545 102.813 609.538 101.88C607.532 100.9 606.038 99.8267 605.058 98.66C604.078 97.4933 603.215 95.8367 602.468 93.69C601.768 91.5433 601.418 89.3033 601.418 86.97ZM615.348 85.08C618.662 85.08 621.088 84.9633 622.628 84.73C622.535 83.3767 622.115 82.28 621.368 81.44C620.622 80.5533 619.595 79.8067 618.288 79.2C617.868 79.0133 617.495 78.8733 617.168 78.78C616.842 78.6867 616.468 78.64 616.048 78.64C613.902 78.64 612.082 79.2233 610.588 80.39C609.142 81.5567 608.278 83.05 607.998 84.87C610.332 85.01 612.782 85.08 615.348 85.08Z" fill="#F4EB9B"/>
<path d="M58.6 41.7C59.2 42.42 59.62 43 59.86 43.44C60.1 43.88 60.22 44.3 60.22 44.7C60.22 45.18 59.9 45.74 59.26 46.38C58.66 47.02 58.06 47.34 57.46 47.34C56.66 47.34 56.02 47.22 55.54 46.98C55.06 46.74 54.66 46.36 54.34 45.84C53.7 44.88 52.92 44.06 52 43.38C51.08 42.66 49.64 42.3 47.68 42.3C46 42.3 44.08 42.68 41.92 43.44C39.8 44.2 38.28 45.14 37.36 46.26C36.56 47.26 35.86 48.78 35.26 50.82C34.7 52.86 34.42 54.84 34.42 56.76C34.42 59.08 34.92 61.22 35.92 63.18C36.96 65.1 38.44 66.64 40.36 67.8C42.32 68.96 44.66 69.54 47.38 69.54C48.86 69.54 50.38 69.26 51.94 68.7C53.54 68.1 54.92 67.14 56.08 65.82H56.02C56.74 65.06 57.64 64.68 58.72 64.68C59.36 64.68 59.96 64.96 60.52 65.52C61.12 66.08 61.42 66.64 61.42 67.2C61.42 67.8 61.32 68.34 61.12 68.82C60.96 69.26 60.64 69.76 60.16 70.32C58.52 72.16 56.58 73.42 54.34 74.1C52.1 74.78 49.42 75.12 46.3 75.12C43.54 75.12 40.74 74.46 37.9 73.14C35.1 71.82 32.94 70.22 31.42 68.34C30.62 67.18 29.84 65.52 29.08 63.36C28.36 61.16 28 59.38 28 58.02C28 54.54 28.52 51.24 29.56 48.12C30.64 44.96 32.24 42.44 34.36 40.56C35.76 39.28 37.78 38.32 40.42 37.68C43.06 37.04 45.48 36.72 47.68 36.72C50.36 36.72 52.46 37.1 53.98 37.86C55.54 38.58 57.08 39.86 58.6 41.7Z" fill="black"/>
<path d="M82.78 101.52C82.74 100.88 82.72 99.92 82.72 98.64V96.36C82.72 94.84 82.68 93.7 82.6 92.94C82.52 92.3 82.48 90.64 82.48 87.96C82.48 87 82.76 86.26 83.32 85.74C83.92 85.18 84.72 84.9 85.72 84.9C87 84.9 87.86 85.18 88.3 85.74C88.74 86.3 88.96 87.22 88.96 88.5V90.78L88.9 97.38C88.86 98.66 88.84 100.58 88.84 103.14L88.9 108.06C88.94 108.82 88.96 109.88 88.96 111.24C88.96 112.32 89 113.86 89.08 115.86C89.16 117.7 89.2 119.08 89.2 120C89.2 120.76 88.98 121.46 88.54 122.1C88.14 122.74 87.58 123.06 86.86 123.06C84.06 123.06 82.66 122.12 82.66 120.24C82.66 119.2 82.7 118.04 82.78 116.76C82.86 115.84 82.9 114.44 82.9 112.56C82.9 111.24 82.86 109.34 82.78 106.86C80.9 107.02 77.66 107.1 73.06 107.1C70.18 107.1 67.94 107.1 66.34 107.1C64.74 107.06 63.58 106.96 62.86 106.8L62.8 113.7C62.8 114.14 62.9 115.32 63.1 117.24C63.3 118.52 63.4 119.64 63.4 120.6C63.4 121.2 63.04 121.78 62.32 122.34C61.64 122.86 61 123.12 60.4 123.12C58.96 123.12 57.98 122.78 57.46 122.1C56.94 121.38 56.68 120.3 56.68 118.86L56.62 114.12C56.58 113.56 56.56 112.78 56.56 111.78C56.56 110.3 56.52 108.28 56.44 105.72C56.36 103.4 56.32 101.72 56.32 100.68C56.32 99.12 56.36 96.94 56.44 94.14C56.52 91.5 56.56 89.54 56.56 88.26C56.56 86.98 56.88 86.12 57.52 85.68C58.16 85.24 58.88 85.02 59.68 85.02C61.92 85.02 63.04 85.76 63.04 87.24C63.04 89.88 62.98 92.4 62.86 94.8C62.78 97.84 62.74 100.06 62.74 101.46C63.9 101.74 65.12 101.92 66.4 102C67.68 102.08 69.48 102.12 71.8 102.12C76.52 102.12 80.18 101.92 82.78 101.52Z" fill="black"/>
<path d="M113.6 41.7C114.2 42.42 114.62 43 114.86 43.44C115.1 43.88 115.22 44.3 115.22 44.7C115.22 45.18 114.9 45.74 114.26 46.38C113.66 47.02 113.06 47.34 112.46 47.34C111.66 47.34 111.02 47.22 110.54 46.98C110.06 46.74 109.66 46.36 109.34 45.84C108.7 44.88 107.92 44.06 107 43.38C106.08 42.66 104.64 42.3 102.68 42.3C101 42.3 99.08 42.68 96.92 43.44C94.8 44.2 93.28 45.14 92.36 46.26C91.56 47.26 90.86 48.78 90.26 50.82C89.7 52.86 89.42 54.84 89.42 56.76C89.42 59.08 89.92 61.22 90.92 63.18C91.96 65.1 93.44 66.64 95.36 67.8C97.32 68.96 99.66 69.54 102.38 69.54C103.86 69.54 105.38 69.26 106.94 68.7C108.54 68.1 109.92 67.14 111.08 65.82H111.02C111.74 65.06 112.64 64.68 113.72 64.68C114.36 64.68 114.96 64.96 115.52 65.52C116.12 66.08 116.42 66.64 116.42 67.2C116.42 67.8 116.32 68.34 116.12 68.82C115.96 69.26 115.64 69.76 115.16 70.32C113.52 72.16 111.58 73.42 109.34 74.1C107.1 74.78 104.42 75.12 101.3 75.12C98.54 75.12 95.74 74.46 92.9 73.14C90.1 71.82 87.94 70.22 86.42 68.34C85.62 67.18 84.84 65.52 84.08 63.36C83.36 61.16 83 59.38 83 58.02C83 54.54 83.52 51.24 84.56 48.12C85.64 44.96 87.24 42.44 89.36 40.56C90.76 39.28 92.78 38.32 95.42 37.68C98.06 37.04 100.48 36.72 102.68 36.72C105.36 36.72 107.46 37.1 108.98 37.86C110.54 38.58 112.08 39.86 113.6 41.7Z" fill="black"/>
</svg>
